<?xml version="1.0" encoding="utf-8"?>
<!-- Generator: Adobe Illustrator 28.1.0, SVG Export Plug-In . SVG Version: 6.00 Build 0)  -->
<svg version="1.1" id="Layer_1" xmlns="http://www.w3.org/2000/svg" xmlns:xlink="http://www.w3.org/1999/xlink" x="0px" y="0px"
	 viewBox="0 0 460 128" style="enable-background:new 0 0 460 128;" xml:space="preserve">
<style type="text/css">
	.st0{fill:#0F40FF;}
	.st1{fill:#FFFFFF;}
</style>
<g>
	<rect x="166" y="-166" transform="matrix(6.123234e-17 -1 1 6.123234e-17 166 294)" class="st0" width="128" height="460"/>
	<g>
		<g>
			<path class="st1" d="M65.7,64c0-12.6,7.9-21.4,20-21.4c10.7,0,17.8,6.6,19.5,16.6h-6.6c-1.4-6.5-5.9-10.8-12.9-10.8
				c-8.4,0-13.4,6.4-13.4,15.7s5.1,15.7,13.4,15.7c7,0,11.4-4.3,12.9-10.8h6.6c-1.7,9.9-8.8,16.6-19.5,16.6
				C73.6,85.4,65.7,76.6,65.7,64z"/>
			<path class="st1" d="M109.1,84.8V43.2h6v41.6H109.1z"/>
			<path class="st1" d="M119.1,76.8c0-5.3,4.2-8.1,10-8.7l3.9-0.4c3.2-0.3,5.3-1,5.3-3.8c0-2.8-2.4-4.4-5.8-4.4
				c-3.7,0-6,1.7-6.5,4.5h-6c0.7-5.7,5.9-9.5,12.3-9.5c7.8,0,12.1,4.3,12.1,10.7v19.5h-5.9v-4.3c-1.9,3.5-5.5,5-9.2,5
				C122.8,85.4,119.1,81.6,119.1,76.8z M138.4,73.7v-4.3c-0.6,1.8-2.4,2.5-5.7,3l-3,0.4c-3,0.4-4.5,1.8-4.5,3.9c0,2.5,2.2,4,5.5,4
				C135.6,80.6,138.4,77.5,138.4,73.7z"/>
			<path class="st1" d="M164.9,54.9v5.8h-3.3c-4.4,0-6.9,1.7-6.9,6.1v18h-6V55.2h6v5.2c1.7-4,5-5.5,8.2-5.5H164.9z"/>
			<path class="st1" d="M168.1,50.4v-7.2h6v7.2H168.1z M168.1,84.8V55.2h6v29.6H168.1z"/>
			<path class="st1" d="M202.6,64.5v20.3h-6v-19c0-4.1-2.4-6.3-5.9-6.3c-3.7,0-6.3,2.6-6.3,7v18.2h-6V55.2h6v4.5
				c1.6-3.1,4.9-5.1,8.7-5.1C199,54.6,202.6,58.5,202.6,64.5z"/>
			<path class="st1" d="M206.3,70c0-9.4,5.6-15.4,14.3-15.4c8.7,0,14.3,6,14.3,15.4c0,9.3-5.6,15.4-14.3,15.4S206.3,79.2,206.3,70z
				 M228.7,70c0-6.5-3-10.4-8.1-10.4c-5.1,0-8,4-8,10.4c0,6.6,3.1,10.4,8,10.4C225.6,80.4,228.7,76.6,228.7,70z"/>
			<path class="st1" d="M233.6,84.8l11.2-15.2l-10.6-14.5h6.9l7.2,10l7.3-10h6.6l-10.6,14.3l11.2,15.3H256L248.2,74l-7.9,10.8H233.6
				z"/>
		</g>
	</g>
</g>
</svg>
